<mxfile host="Electron" modified="2023-08-04T14:42:34.189Z" agent="Mozilla/5.0 (Macintosh; Intel Mac OS X 10_15_7) AppleWebKit/537.36 (KHTML, like Gecko) draw.io/21.6.5 Chrome/114.0.5735.243 Electron/25.3.1 Safari/537.36" etag="ep6OcNOSIQgIZKrUMYiM" version="21.6.5" type="device">
  <diagram name="Page-1" id="jDN8uYpPCT-67N6kx2WV">
    <mxGraphModel dx="954" dy="674" grid="1" gridSize="10" guides="1" tooltips="1" connect="1" arrows="1" fold="1" page="1" pageScale="1" pageWidth="850" pageHeight="1100" math="0" shadow="0">
      <root>
        <mxCell id="0" />
        <mxCell id="1" parent="0" />
        <mxCell id="e4VLpGVlSAPA5Pq9fAGq-1" value="" style="ellipse;fillColor=strokeColor;html=1;" vertex="1" parent="1">
          <mxGeometry x="175" y="78" width="30" height="30" as="geometry" />
        </mxCell>
        <mxCell id="e4VLpGVlSAPA5Pq9fAGq-2" value="" style="ellipse;html=1;shape=endState;fillColor=strokeColor;" vertex="1" parent="1">
          <mxGeometry x="175" y="158" width="30" height="30" as="geometry" />
        </mxCell>
        <mxCell id="e4VLpGVlSAPA5Pq9fAGq-3" value="" style="group" vertex="1" connectable="0" parent="1">
          <mxGeometry x="70" y="382" width="240" height="100" as="geometry" />
        </mxCell>
        <mxCell id="e4VLpGVlSAPA5Pq9fAGq-4" value="Description&lt;br&gt;&lt;br&gt;&lt;b&gt;&lt;i&gt;&lt;font face=&quot;Courier New&quot;&gt;function()&lt;/font&gt;&lt;/i&gt;&lt;/b&gt;" style="html=1;align=center;verticalAlign=middle;rounded=1;absoluteArcSize=1;arcSize=25;dashed=0;fontFamily=Helvetica;fontSize=12;whiteSpace=wrap;container=0;noLabel=0;imageAlign=center;" vertex="1" parent="e4VLpGVlSAPA5Pq9fAGq-3">
          <mxGeometry y="10" width="240" height="80" as="geometry" />
        </mxCell>
        <mxCell id="e4VLpGVlSAPA5Pq9fAGq-5" value="pinOut 2" style="fontStyle=0;labelPosition=center;verticalLabelPosition=bottom;align=center;verticalAlign=top;spacingLeft=2;fontFamily=Helvetica;fontSize=12;resizable=0;container=0;noLabel=1;" vertex="1" parent="e4VLpGVlSAPA5Pq9fAGq-3">
          <mxGeometry x="105" y="90" width="30" height="10" as="geometry" />
        </mxCell>
        <mxCell id="e4VLpGVlSAPA5Pq9fAGq-6" value="pinIn 1" style="fontStyle=0;labelPosition=center;verticalLabelPosition=top;align=center;verticalAlign=bottom;spacingLeft=2;fontFamily=Helvetica;fontSize=12;resizable=0;container=0;noLabel=1;" vertex="1" parent="e4VLpGVlSAPA5Pq9fAGq-3">
          <mxGeometry x="105" width="30" height="10" as="geometry" />
        </mxCell>
        <mxCell id="e4VLpGVlSAPA5Pq9fAGq-7" value="Start of a process" style="text;html=1;align=center;verticalAlign=middle;resizable=0;points=[];autosize=1;strokeColor=none;fillColor=none;" vertex="1" parent="1">
          <mxGeometry x="325" y="78" width="120" height="30" as="geometry" />
        </mxCell>
        <mxCell id="e4VLpGVlSAPA5Pq9fAGq-8" value="End of a process (successful)" style="text;html=1;align=center;verticalAlign=middle;resizable=0;points=[];autosize=1;strokeColor=none;fillColor=none;" vertex="1" parent="1">
          <mxGeometry x="295" y="150" width="180" height="30" as="geometry" />
        </mxCell>
        <mxCell id="e4VLpGVlSAPA5Pq9fAGq-9" value="" style="endArrow=classic;html=1;rounded=0;entryX=0.5;entryY=0;entryDx=0;entryDy=0;" edge="1" parent="1" target="e4VLpGVlSAPA5Pq9fAGq-6">
          <mxGeometry width="50" height="50" relative="1" as="geometry">
            <mxPoint x="360" y="352" as="sourcePoint" />
            <mxPoint x="450" y="422" as="targetPoint" />
            <Array as="points">
              <mxPoint x="190" y="352" />
            </Array>
          </mxGeometry>
        </mxCell>
        <mxCell id="e4VLpGVlSAPA5Pq9fAGq-10" value="" style="endArrow=classic;html=1;rounded=0;exitX=0.5;exitY=1;exitDx=0;exitDy=0;" edge="1" parent="1" source="e4VLpGVlSAPA5Pq9fAGq-5">
          <mxGeometry width="50" height="50" relative="1" as="geometry">
            <mxPoint x="400" y="472" as="sourcePoint" />
            <mxPoint x="360" y="502" as="targetPoint" />
            <Array as="points">
              <mxPoint x="190" y="502" />
            </Array>
          </mxGeometry>
        </mxCell>
        <mxCell id="e4VLpGVlSAPA5Pq9fAGq-11" value="Input" style="text;html=1;align=center;verticalAlign=middle;resizable=0;points=[];autosize=1;strokeColor=none;fillColor=none;" vertex="1" parent="1">
          <mxGeometry x="355" y="340" width="50" height="30" as="geometry" />
        </mxCell>
        <mxCell id="e4VLpGVlSAPA5Pq9fAGq-12" value="Output" style="text;html=1;align=center;verticalAlign=middle;resizable=0;points=[];autosize=1;strokeColor=none;fillColor=none;" vertex="1" parent="1">
          <mxGeometry x="355" y="490" width="60" height="30" as="geometry" />
        </mxCell>
        <mxCell id="e4VLpGVlSAPA5Pq9fAGq-13" value="" style="shape=sumEllipse;perimeter=ellipsePerimeter;html=1;backgroundOutline=1;" vertex="1" parent="1">
          <mxGeometry x="175" y="230" width="30" height="30" as="geometry" />
        </mxCell>
        <mxCell id="e4VLpGVlSAPA5Pq9fAGq-14" value="Process exit point in case of unsuccessful execution &lt;br&gt;(Example: reference EOG event doesn&#39;t have expected shape, &lt;br&gt;process stops with a notification)&amp;nbsp;" style="text;html=1;align=center;verticalAlign=middle;resizable=0;points=[];autosize=1;strokeColor=none;fillColor=none;" vertex="1" parent="1">
          <mxGeometry x="220" y="220" width="360" height="60" as="geometry" />
        </mxCell>
        <mxCell id="e4VLpGVlSAPA5Pq9fAGq-21" value="For subject:" style="shape=umlFrame;whiteSpace=wrap;html=1;pointerEvents=0;recursiveResize=0;container=1;collapsible=0;width=160;dashed=1;" vertex="1" parent="1">
          <mxGeometry x="70" y="560" width="240" height="110" as="geometry" />
        </mxCell>
        <mxCell id="e4VLpGVlSAPA5Pq9fAGq-23" value="Loop&lt;br&gt;" style="text;html=1;align=center;verticalAlign=middle;resizable=0;points=[];autosize=1;strokeColor=none;fillColor=none;" vertex="1" parent="1">
          <mxGeometry x="360" y="600" width="50" height="30" as="geometry" />
        </mxCell>
        <mxCell id="e4VLpGVlSAPA5Pq9fAGq-24" value="Actor" style="shape=umlActor;verticalLabelPosition=bottom;verticalAlign=top;html=1;outlineConnect=0;" vertex="1" parent="1">
          <mxGeometry x="175" y="710" width="30" height="60" as="geometry" />
        </mxCell>
        <mxCell id="e4VLpGVlSAPA5Pq9fAGq-25" value="User" style="text;html=1;align=center;verticalAlign=middle;resizable=0;points=[];autosize=1;strokeColor=none;fillColor=none;" vertex="1" parent="1">
          <mxGeometry x="360" y="725" width="50" height="30" as="geometry" />
        </mxCell>
        <mxCell id="e4VLpGVlSAPA5Pq9fAGq-26" value="QC_derivative,&lt;br&gt;data path" style="rounded=0;whiteSpace=wrap;html=1;" vertex="1" parent="1">
          <mxGeometry x="132.5" y="840" width="115" height="40" as="geometry" />
        </mxCell>
        <mxCell id="e4VLpGVlSAPA5Pq9fAGq-27" value="Input or Output object" style="text;html=1;align=center;verticalAlign=middle;resizable=0;points=[];autosize=1;strokeColor=none;fillColor=none;" vertex="1" parent="1">
          <mxGeometry x="315" y="840" width="140" height="30" as="geometry" />
        </mxCell>
      </root>
    </mxGraphModel>
  </diagram>
</mxfile>
